<svg width="84" height="96" viewBox="0 0 84 96" fill="none" xmlns="http://www.w3.org/2000/svg">
<g id="b-logo 1" clip-path="url(#clip0_1_2)">
<g id="Group">
<g id="Group_2">
<path id="Shape" d="M42 3L3 25V70L42 93L81 71V26L42 3Z" stroke="white" stroke-width="5" stroke-linecap="round" stroke-linejoin="round"/>
<path id="S" d="M55.1 57.8C55.1 59.7333 54.6667 61.35 53.8 62.65C52.9333 63.9167 51.7833 64.9167 50.35 65.65C48.95 66.3833 47.4167 66.9 45.75 67.2C44.0833 67.5 42.45 67.65 40.85 67.65C39.6167 67.65 38.4333 67.4667 37.3 67.1C36.1667 66.7667 35.0167 66.3833 33.85 65.95C33.2833 65.75 32.7167 65.6333 32.15 65.6C31.6167 65.5333 31.05 65.5 30.45 65.5C30.35 64.7 30.25 63.9167 30.15 63.15C30.05 62.35 29.9333 61.55 29.8 60.75C29.7333 60.1833 29.65 59.6333 29.55 59.1C29.45 58.5667 29.4 58.0333 29.4 57.5C29.4 57.0333 29.4833 56.65 29.65 56.35C29.85 56.05 30.2 55.9 30.7 55.9C31.1667 55.9 31.5167 56 31.75 56.2C32.0167 56.3667 32.2167 56.6667 32.35 57.1C32.5833 57.7 32.7667 58.3167 32.9 58.95C33.0667 59.5833 33.2667 60.2167 33.5 60.85C34.0667 62.4167 34.9833 63.6667 36.25 64.6C37.55 65.5333 39.0667 66 40.8 66C43.1333 66 44.9167 65.3333 46.15 64C47.4167 62.6333 48.05 60.8 48.05 58.5C48.05 57.1667 47.7667 56.0667 47.2 55.2C46.6333 54.3 45.9 53.5333 45 52.9C44.1 52.2667 43.1333 51.6667 42.1 51.1C41.1333 50.5667 40.15 50.0667 39.15 49.6C38.15 49.1333 37.1667 48.65 36.2 48.15C35.1333 47.5833 34.0833 46.8833 33.05 46.05C32.05 45.1833 31.2167 44.2 30.55 43.1C29.9167 41.9667 29.6 40.75 29.6 39.45C29.6 37.25 30.1667 35.4333 31.3 34C32.4667 32.5667 33.95 31.5 35.75 30.8C37.5833 30.1 39.4833 29.75 41.45 29.75C42.7167 29.75 43.9333 29.9333 45.1 30.3C46.3 30.6333 47.4667 31.0333 48.6 31.5C48.9667 31.6333 49.3 31.7333 49.6 31.8C49.9333 31.8667 50.2833 31.9 50.65 31.9C50.9167 31.9 51.1667 31.9 51.4 31.9C51.6333 31.8667 51.8667 31.8333 52.1 31.8C52.2 32.8667 52.3167 33.9333 52.45 35C52.5833 36.0667 52.7167 37.1333 52.85 38.2C52.8833 38.3667 52.9 38.55 52.9 38.75C52.9333 38.9167 52.95 39.0833 52.95 39.25C52.95 39.7167 52.85 40.15 52.65 40.55C52.45 40.9167 52.0667 41.1 51.5 41.1C51.0667 41.1 50.75 41 50.55 40.8C50.35 40.6 50.1667 40.3167 50 39.95C49.6 38.9167 49.2167 37.9 48.85 36.9C48.4833 35.9 47.95 34.9667 47.25 34.1C46.5167 33.1667 45.6 32.4833 44.5 32.05C43.4 31.5833 42.2667 31.35 41.1 31.35C39.9667 31.35 39.0167 31.6667 38.25 32.3C37.4833 32.9 36.9167 33.6833 36.55 34.65C36.1833 35.6167 36 36.6167 36 37.65C36 39.25 36.4167 40.5 37.25 41.4C38.1167 42.2667 39.1833 43.0667 40.45 43.8C41.15 44.1667 41.85 44.5333 42.55 44.9C43.2833 45.2333 44 45.5667 44.7 45.9C46.3667 46.6667 47.9833 47.6 49.55 48.7C51.15 49.7667 52.4667 51.05 53.5 52.55C54.5667 54.0167 55.1 55.7667 55.1 57.8Z" fill="white"/>
</g>
</g>
</g>
<defs>
<clipPath id="clip0_1_2">
<rect width="84" height="96" fill="white"/>
</clipPath>
</defs>
</svg>
