<svg xmlns="http://www.w3.org/2000/svg" xmlns:xlink="http://www.w3.org/1999/xlink" viewBox="0,0,256,256" width="50px" height="50px" fill-rule="evenodd"><g fill="none" fill-rule="evenodd" stroke="none" stroke-width="1" stroke-linecap="butt" stroke-linejoin="miter" stroke-miterlimit="10" stroke-dasharray="" stroke-dashoffset="0" font-family="none" font-weight="none" font-size="none" text-anchor="none" style="mix-blend-mode: normal"><g transform="scale(0.0005,0.0005)"><path d="M257130,6860c137804,0 249517,111713 249517,249517c0,137804 -111713,249517 -249517,249517c-137804,0 -249517,-111713 -249517,-249517c0,-137804 111713,-249517 249517,-249517z" fill="#ffffff"></path><path d="M196822,314135c0,11375 5101,19996 15302,25865c10201,5868 23969,8802 41302,8802c8848,0 17017,-993 24511,-2979c7493,-1987 13993,-4830 19500,-8531c5506,-3702 9795,-8171 12865,-13407c3069,-5236 4604,-11104 4604,-17604c0,-7222 -1715,-13180 -5146,-17875c-3431,-4695 -7944,-8667 -13541,-11916c-32027,-18598 -69493,-14751 -92084,-28793c-6680,-4153 -12052,-9389 -16115,-15709c-4062,-6319 -6093,-14263 -6093,-23832c0,-9028 1896,-17244 5688,-24646c3791,-7403 9027,-13722 15708,-18959c6680,-5236 14715,-9253 24104,-12052c9390,-2798 19591,-4198 30605,-4198c10652,0 20358,993 29114,2979c8758,1987 16341,5010 22750,9073c6410,4063 11375,9208 14896,15437c3521,6230 5281,13587 5281,22074c0,8125 -1579,13903 -4739,17334c-3161,3430 -6365,5145 -9615,5145c-4153,0 -6229,-1444 -6229,-4333c0,-902 317,-1760 948,-2572c632,-813 1264,-1851 1896,-3115c632,-1264 1264,-2889 1896,-4874c632,-1987 948,-4514 948,-7584c0,-11375 -5101,-19996 -15302,-25865c-10201,-5868 -23969,-8802 -41302,-8802c-8848,0 -17017,993 -24511,2979c-7493,1987 -13993,4830 -19500,8531c-5506,3702 -9795,8171 -12865,13407c-3069,5236 -4604,11104 -4604,17604c0,7222 1715,13180 5146,17875c3431,4695 7944,8667 13541,11916c32027,18598 69493,14751 92084,28793c6680,4153 12052,9389 16115,15709c4062,6319 6093,14263 6093,23832c0,9028 -1896,17244 -5688,24646c-3791,7403 -9027,13722 -15708,18959c-6680,5236 -14715,9253 -24104,12052c-9390,2798 -19591,4198 -30605,4198c-10652,0 -20358,-993 -29114,-2979c-8758,-1987 -16341,-5010 -22750,-9073c-6410,-4063 -11375,-9208 -14896,-15437c-3521,-6230 -5281,-13587 -5281,-22074c0,-8125 1579,-13903 4739,-17334c3161,-3430 6365,-5145 9615,-5145c4153,0 6229,1444 6229,4333c0,902 -317,1760 -948,2572c-632,813 -1264,1851 -1896,3115c-632,1264 -1264,2889 -1896,4874c-632,1987 -948,4514 -948,7584z" fill="#000000"></path></g></g></svg>