<svg xmlns="http://www.w3.org/2000/svg" xmlns:xlink="http://www.w3.org/1999/xlink" viewBox="0,0,256,256" width="20px" height="20px" fill-rule="nonzero"><g fill="#ffffff" fill-rule="nonzero" stroke="none" stroke-width="1" stroke-linecap="butt" stroke-linejoin="miter" stroke-miterlimit="10" stroke-dasharray="" stroke-dashoffset="0" font-family="none" font-weight="none" font-size="none" text-anchor="none" style="mix-blend-mode: normal"><g transform="scale(5.12,5.12)"><path d="M0,7v2.91211c6.708,5.797 20.53206,17.74447 21.66406,18.73047c1.41,1.227 2.80194,1.35938 3.33594,1.35938c0.534,0 1.92694,-0.13142 3.33594,-1.35742c1.09,-0.949 14.44806,-12.61111 21.66406,-18.91211v-2.73242zM50,12.38281c-7.412,6.471 -19.32652,16.87263 -20.35352,17.76563c-1.917,1.669 -3.88848,1.84961 -4.64648,1.84961c-0.758,0 -2.72948,-0.18056 -4.64648,-1.85156c-1.063,-0.924 -13.30952,-11.5077 -20.35352,-17.5957v30.44922h50z"></path></g></g></svg>